<?xml version="1.0" encoding="iso-8859-1"?>
<!-- Generator: Adobe Illustrator 19.0.0, SVG Export Plug-In . SVG Version: 6.00 Build 0)  -->
<svg version="1.1" id="Layer_1" xmlns="http://www.w3.org/2000/svg" xmlns:xlink="http://www.w3.org/1999/xlink" x="0px" y="0px"
	 viewBox="0 0 512 512" style="enable-background:new 0 0 512 512;" xml:space="preserve">
<g>
	<g>
		<path d="M405.857,180.364c-2.327-3.491-5.818-5.818-10.473-5.818h-86.109l73.309-158.255c1.164-3.491,1.164-8.145-1.164-11.636
			C379.093,1.164,375.602,0,372.112,0h-128c-6.982,0-11.636,4.655-11.636,11.636s4.655,11.636,11.636,11.636h109.382
			l-73.309,158.255c-1.164,3.491-1.164,8.145,1.164,11.636c2.327,3.491,5.818,4.655,9.309,4.655h82.618L209.202,443.345
			L244.112,281.6c1.164-3.491,0-6.982-2.327-9.309c-2.327-3.491-5.818-4.655-9.309-4.655H131.239l77.964-252.509
			c2.327-5.818-1.164-12.8-8.145-13.964c-5.818-2.327-12.8,1.164-13.964,8.145l-81.455,267.636
			c-1.164,2.327-1.164,5.818,1.164,9.309c2.327,2.327,5.818,4.655,9.309,4.655h102.4l-44.218,207.127
			c-1.164,5.818,1.164,10.473,6.982,12.8C182.439,512,184.766,512,185.93,512c3.491,0,6.982-2.327,9.309-4.655l209.455-314.182
			C407.021,188.509,408.184,185.018,405.857,180.364z"/>
	</g>
</g>
<g>
	<g>
		<path d="M212.693,105.891c-5.818-2.327-12.8,1.164-13.964,6.982L163.821,217.6c-2.327,5.818,1.164,12.8,6.982,15.127
			c1.164,0,2.327,1.164,3.491,1.164c4.655,0,9.309-3.491,10.473-8.145l34.909-104.727
			C222.002,115.2,218.512,108.218,212.693,105.891z"/>
	</g>
</g>
<g>
</g>
<g>
</g>
<g>
</g>
<g>
</g>
<g>
</g>
<g>
</g>
<g>
</g>
<g>
</g>
<g>
</g>
<g>
</g>
<g>
</g>
<g>
</g>
<g>
</g>
<g>
</g>
<g>
</g>
</svg>
