<?xml version="1.0" encoding="iso-8859-1"?>
<!-- Generator: Adobe Illustrator 19.0.0, SVG Export Plug-In . SVG Version: 6.00 Build 0)  -->
<svg version="1.1" id="Capa_1" xmlns="http://www.w3.org/2000/svg" xmlns:xlink="http://www.w3.org/1999/xlink" x="0px" y="0px"
	 viewBox="0 0 512 512" style="enable-background:new 0 0 512 512;" xml:space="preserve">
<g>
	<g>
		<path d="M502.569,124.308c-5.622-15.542-13.691-29.537-21.589-37.438c-13.898-13.892-43.03-38.464-81.982-46.955
			c-22.895-4.988-46.077-3.787-68.897,3.577c-25.127,8.107-50.026,23.794-74.099,46.672c-24.075-22.877-48.977-38.565-74.105-46.672
			c-22.822-7.364-46.003-8.567-68.899-3.577C74.034,48.408,44.912,72.979,31.02,86.872c-7.896,7.899-15.966,21.894-21.588,37.438
			C4.44,138.111-1.21,160.215,0.228,187.146c1.289,24.143,7.982,47.774,19.895,70.234c13.913,26.231,34.999,50.854,62.67,73.183
			c119.772,96.67,167.492,141.992,167.96,142.438c1.469,1.402,3.359,2.103,5.25,2.102c1.891,0,3.781-0.701,5.25-2.102
			c0.354-0.337,35.526-33.768,121.105-104.253c3.238-2.667,3.713-7.459,1.05-10.701c-2.668-3.248-7.473-3.711-10.718-1.038
			c-67.6,55.676-103.995,88.433-116.689,100.107c-15.364-14.123-65.44-59.118-163.657-138.389
			c-26.063-21.032-45.841-44.07-58.785-68.474c-10.87-20.493-16.974-41.998-18.144-63.918
			c-2.301-43.113,14.948-77.294,26.361-88.711c30.102-30.103,110.68-89.517,208.728,8.414c0.749,0.748,1.621,1.39,2.605,1.784
			c2.954,1.186,6.166,0.443,8.272-1.663c98.075-98.085,178.73-38.644,208.849-8.538c11.412,11.417,28.659,45.595,26.359,88.706
			c-1.169,21.921-7.273,43.427-18.143,63.921c-12.943,24.406-32.721,47.445-58.783,68.479c-6.54,5.279-13.063,10.565-19.463,15.77
			c-3.262,2.652-3.75,7.444-1.095,10.702c2.65,3.252,7.432,3.746,10.686,1.099c6.387-5.194,12.896-10.468,19.423-15.736
			c64.699-52.214,80.609-106.815,82.561-143.425C513.208,160.211,507.561,138.109,502.569,124.308z"/>
	</g>
</g>
<g>
</g>
<g>
</g>
<g>
</g>
<g>
</g>
<g>
</g>
<g>
</g>
<g>
</g>
<g>
</g>
<g>
</g>
<g>
</g>
<g>
</g>
<g>
</g>
<g>
</g>
<g>
</g>
<g>
</g>
</svg>
