<svg height="511pt" viewBox="1 -50 511.99975 511" width="511pt" xmlns="http://www.w3.org/2000/svg"><path d="m207.6875 411c-2.652344 0-5.195312-1.054688-7.070312-2.929688l-197.6875-197.6875c-1.875-1.875-2.929688-4.417968-2.929688-7.070312 0-2.65625 1.054688-5.195312 2.929688-7.074219l96.1875-96.183593c3.90625-3.90625 10.238281-3.90625 14.140624 0l94.429688 94.429687 191.054688-191.054687c1.875-1.875 4.417968-2.929688 7.070312-2.929688s5.195312 1.054688 7.070312 2.929688l96.1875 96.1875c3.90625 3.90625 3.90625 10.238281 0 14.144531l-128.136718 128.136719c-3.90625 3.902343-10.238282 3.902343-14.144532 0-3.90625-3.90625-3.90625-10.238282 0-14.144532l121.066407-121.066406-82.042969-82.046875-191.054688 191.054687c-1.875 1.875-4.417968 2.929688-7.070312 2.929688s-5.195312-1.054688-7.070312-2.929688l-94.429688-94.429687-82.042969 82.046875 183.542969 183.542969 102.535156-102.53125c3.902344-3.90625 10.234375-3.90625 14.140625 0s3.90625 10.238281 0 14.144531l-109.605469 109.601562c-1.875 1.875-4.417968 2.929688-7.070312 2.929688zm0 0"/><path d="m345.660156 273.1875c-2.640625 0-5.210937-1.066406-7.070312-2.929688-1.871094-1.859374-2.929688-4.4375-2.929688-7.070312 0-2.628906 1.058594-5.207031 2.929688-7.066406 1.859375-1.859375 4.429687-2.933594 7.070312-2.933594 2.628906 0 5.210938 1.070312 7.070313 2.933594 1.859375 1.859375 2.929687 4.4375 2.929687 7.066406 0 2.632812-1.070312 5.210938-2.929687 7.070312-1.859375 1.863282-4.441407 2.929688-7.070313 2.929688zm0 0"/></svg>